<?xml version="1.0"?>
<svg xmlns="http://www.w3.org/2000/svg" xmlns:xlink="http://www.w3.org/1999/xlink" id="Layer_1" data-name="Layer 1" viewBox="0 0 512 512" width="512" height="512"><defs><linearGradient id="linear-gradient" x1="256" y1="492" x2="256" y2="27.569" gradientUnits="userSpaceOnUse"><stop offset="0.322" stop-color="#a163f5"/><stop offset="0.466" stop-color="#b074ee"/><stop offset="0.752" stop-color="#d8a1dd"/><stop offset="0.898" stop-color="#efbad3"/></linearGradient><linearGradient id="linear-gradient-2" x1="367" y1="492" x2="367" y2="27.569" xlink:href="#linear-gradient"/></defs><title>Add User</title><path d="M367,311.5a96.808,96.808,0,0,0-73.308,33.545l-27.327-8.86V303.867a102.708,102.708,0,0,0,48.22-68.847l4.156-14.3a32.866,32.866,0,0,0,21.76-39.063,26.186,26.186,0,0,0-17.059-18.723V116.263a109.763,109.763,0,1,0-219.526,0v46.66a26.185,26.185,0,0,0-17.1,18.739,32.867,32.867,0,0,0,21.759,39.063l4.156,14.3a102.7,102.7,0,0,0,48.221,68.846v32.319L90.122,359.149C70.34,365.563,55.339,381.01,49.994,400.47q-.312,1.138-.58,2.289A57.089,57.089,0,0,0,48,415.883v51.6a7,7,0,0,0,7,7H295.967A96.978,96.978,0,1,0,367,311.5ZM222.542,118.291c8.931,9.5,36.973,34.724,86.9,39.855v3.6c-19.341-.476-76.523-4.717-121.934-36.892l.627-.081A298.247,298.247,0,0,0,222.542,118.291Zm-104.626-2.028a95.763,95.763,0,0,1,191.526,0v27.785c-36.665-4.161-60.156-20.4-71.319-30.248,18.725-6.144,34.674-14.221,47.671-24.189a7,7,0,0,0-8.52-11.11c-26.565,20.374-63.983,28.839-90.695,32.354a327.46,327.46,0,0,1-52.85,2.737,7,7,0,0,0-7.352,6.672l-1.7,37.314a6.667,6.667,0,0,1-3.541,5.646,7,7,0,0,1-3.221.837Zm8.508,115.83c-.042-.223-.1-.444-.158-.661l-5.145-17.7a7,7,0,0,0-5.691-5.7,18.857,18.857,0,0,1-15.018-23.042,12.137,12.137,0,0,1,8.567-8.98,20.761,20.761,0,0,0,29.684-17.8l1.388-30.463c6.038.054,15.592-.057,27.289-.89,31.215,26.77,69.543,38.645,96.493,43.9,29.771,5.805,51.949,5.034,52.878,5,.155-.006.307-.025.46-.041a12.249,12.249,0,0,1,9.732,9.275,18.856,18.856,0,0,1-15.018,23.041,7,7,0,0,0-5.691,5.7l-5.145,17.7a6.759,6.759,0,0,0-.158.661,88.762,88.762,0,0,1-174.467,0Zm87.233,86.36a102.406,102.406,0,0,0,38.708-7.582v26.2a90.044,90.044,0,0,1-77.415,0v-26.2A102.4,102.4,0,0,0,213.657,318.453ZM62,460.479v-44.6a43.42,43.42,0,0,1,1.047-9.943q.207-.887.448-1.763c4.092-14.9,15.66-26.755,30.945-31.711l72.784-23.6a103.994,103.994,0,0,0,92.867,0l24.8,8.042a96.805,96.805,0,0,0,.243,103.569ZM367,491.5a83,83,0,1,1,83-83A83.094,83.094,0,0,1,367,491.5Z" style="fill:url(#linear-gradient)"/><path d="M401.056,401.75H374V374.694a7,7,0,1,0-14,0V401.75H332.944a7,7,0,1,0,0,14H360v27.057a7,7,0,0,0,14,0V415.75h27.056a7,7,0,1,0,0-14Z" style="fill:url(#linear-gradient-2)"/></svg>
